<svg xmlns="http://www.w3.org/2000/svg" version="1" width="16pt" height="16pt" viewBox="0 0 16 16">
  <path d="M6.5690746.41540048c-.27614344.10546872-.61755716.24609368-.7531185.31640616-.3514553.18080352-2.58570684 1.06473184-3.012474 1.19028984-.6476819.19084816-1.0493451.26618296-1.5564449.3013392l-.502079.03013392-.01506236.1757812c-.01004158.09542408.01004158.3013392.04016632.4520088.11045738.502232.29120582.79854888.7480977 1.25558.3514553.34654008.51714138.47209808.87361747.64787928.43178794.21093744 1.26523908.45703112 1.54640332.45703112.07531185 0 .1958108.0502232.26610187.11049104.11547817.11049104.3564761.48716504.32133056.51729896-.01004158.00502232-.1958108.0753348-.41672557.1506696-.57237.19587048-.5874324.21595976-.2359771.38169632.336393.16071424.6326196.45703112.5924532.58761144-.0351455.09542408-.2661018.36160704-.3213305.36160704-.0652702 0-.1355613-.0753348-.2108732-.2260044-.0401663-.08035712-.19079-.27120528-.3363929-.42187488l-.2610811-.27120528-.3665176.0251116c-.3012474.02008928-.4418295.06026784-.7732016.23102672-.4217463.21093744-.6125364.38671864-.6527027.61272304-.0200831.09542408-.0853534.1506696-.2510395.22098208-.2610811.10546872-.4970582.36160704-.5773908.61774536-.0401663.14062496-.1104574.2260044-.2761434.3264508l-.2209147.13560264v.7784596c0 .58258912.0150624.78850424.0652703.81863816.0351456.02008928.1255198.14564728.1958108.27120528.2962266.50725432 1.0945323 1.10993272 1.6618815 1.25055768.1305406.03515624.2409979.0753348.2409979.09542408.0050208.01506696.0150624.125558.0150624.24609368.0150624.28627224.1606653.4771204.4117048.5273436.4920375.10546872.813368.39174096 1.3556133 1.19531216.3313722.49720968 1.0242412 1.21037912 1.410842 1.4564728.1757277.10546872.5221622.26618296.7732017.3515624.3815801.125558.527183.1506696.8685967.14062496.2209148-.00502232.622578.01004464.8886798.03013392.4468503.03515624.5121206.03013392.9037422-.1004464.9238254-.30636152 1.3405509-.6529016.9740333-.81863816-.19079-.08537944-.1857692-.1004464.1958109-.54743288.2008316-.23604904.2711227-.26618296.8736175-.34654008.6828275-.08537944 1.1045738-.28627224 1.601632-.74832568.7832433-.71819176 1.2150312-1.74776736 1.0694283-2.54129392-.095395-.54241056-.1054366-.50725432.2058524-.65792392.3514553-.16573656.7581393-.61272304.908763-.99441936.1355613-.34151776.17572766-1.01450864.0903742-1.4062496-.08033262-.3515624-.286185-.80859352-.5171414-1.15011128-.2409979-.3515624-.2460187-.5273436-.0100416-.80859352.1907901-.2260044.2108732-.29631688.1154782-.39676328-.0552287-.0502232-.0351455-.05524552.0853534-.0251116.1907901.0502232.240998.04520088.5773909-.05524552.1556445-.04520088.3464345-.06529016.44182958-.0502232l.1606653.03013392v-.2762276c0-.53236592-.5673493-1.32087016-1.3003846-1.8080352-.7229938-.48214272-1.14474014-.58258912-2.55056134-.62779-1.0242412-.03515624-1.1196362-.04520088-1.23009355-.14062496-.0602495-.05524552-.2409979-.21595976-.3916216-.3515624-.43178794-.39174096-.7681809-.64285696-1.2451559-.92410688-.240998-.14564728-.4920375-.31138384-.5623286-.376674-.0702914-.06026784-.271123-.18080352-.4468506-.26618296-.4619127-.22098208-.813368-.21093744-1.4861538.04017856zm1.506237.09542408c.08033265.0502232.0552287.05524552-.16066527.03013392-.47195426-.06026784-.908763.10546872-1.66690228.62276768-.48701663.3264508-.78826403.46707576-.93386694.43191952-.3062681-.0753348-.0050207-.48214272.5723701-.75837032C6.5941786.4957576 6.9104884.41540048 7.4728168.43548976c.27614346.01004464.54726612.04520088.6024948.0753348zm.0100416.31640616c.03012473.03013392.17572764.06026784.32635134.06529016.24099792.00502232.31128898.04017856.79328482.36662936.62759875.43191952 1.22005197.96428544 1.73719334 1.57700848l.37655925.44698648h-.22593555c-.28618503 0-.34141372.08035712-.08033264.12053568.36149688.05524552.6075156.18582584.7581393.39676328.2008316.2762276.19079.38671864-.02008317.38671864-.4870167 0-.9690125.29129456-1.1798857.71819176-.0602495.12053568-.1506237.25613832-.2058524.30636152-.0903742.08035712-.0903742.0753348 0-.30636152.095395-.39676328.1204989-1.16517824.0502079-1.42131656-.025104-.08537944-.0050208-.1757812.0552287-.2762276.1104574-.18080352.1154781-.33649544.0200831-.51729896-.1004158-.19084816-.4619127-.53236592-.502079-.47209808-.0150624.03013392-.0050208.07031248.0251039.09040176.070291.04520088.2962266.52232128.2962266.63281232 0 .125558-.0853534.11551336-.1255198-.01506696-.0552287-.16071424-.5824117-.67299088-.8284304-.79854888-.1255198-.06026784-.2309564-.11551336-.240998-.125558-.0050208-.00502232.0251039-.09040176.0652703-.19084816.1456029-.34654008.0853534-.36160704-.215894-.05524552-.4418295.44698648-1.0242411.72321408-1.5413825.72321408-.215894 0-.4267672-.11049104-.4267672-.22098208 0-.19587048.8183888-.73325872 1.3556133-.88895064.2008316-.06026784.2108732-.07031248.0903742-.08537944-.0753119-.01004464-.2209148.01004464-.3263514.03515624-.12049897.03515624-.1958108.03515624-.2058524.00502232-.01004158-.0251116-.07029106-.125558-.1355613-.2260044-.1456029-.20591512-.08033265-.24107136.07029105-.04017856.120499.16573656.1405821.0753348.03012472-.13560264C7.799168.77700752 7.799168.7719852 7.9146462.7719852c.0652703 0 .14058215.0251116.1707069.05524552zm-.54224533.376674c.09037422.1004464.1556445.2008928.1456029.2260044-.01004157.0251116-.11045737.10546872-.22091475.17075888l-.2058524.12053568-.12049895-.18582584c-.12049896-.18582584-.2460187-.24107136-.28116424-.125558-.01506237.03515624.01004158.06529016.0552287.06529016.0451871 0 .06527026.03013392.0502079.06529016-.01506238.04017856 0 .13058032.03012473.20591512.0451871.12053568.03012474.16071424-.11045738.33147312-.11045738.13560264-.2058524.2008928-.29120582.2008928-.22091476 0-.51212058-.10546872-.64266112-.23604904l-.12551975-.125558.2209147-.13058032c.1204989-.07031248.3514553-.23102672.5171413-.35658472.7229937-.56752216.6878482-.55747752.979054-.2260044zm-2.53047816.10546872c-.070291.16071424-.0853534.31138384-.0552286.43694184.0401663.16573656.3414137.3013392.5773909.26116064.1807485-.0251116.19079-.02008928.2761435.1757812.1104574.251116.336393.39676328.622578.39676328.1757277 0 .2108732.01506696.2108732.09542408 0 .05524552.0150624.13058032.0301248.17075888.0200832.05524552-.0753118.09542408-.4167255.1757812-.7129521.17075888-.7681808.1757812-.7681808.1004464 0-.1506696-.2309563-.29631688-.5573077-.34654008-.3414137-.05524552-.7330353-.03013392-1.2250728.08537944-.6024948.13560264-1.4058212.19084816-1.7673181.125558-.3715384-.07031248-.7380561-.23604904-.908763-.42187488l-.1154783-.12053568.3916216-.03013392c.597474-.0502232 1.6719231-.34654008 2.5656237-.70814712.4468503-.1757812.8685967-.36160704.9489293-.4017856.1857693-.1004464.2359772-.1004464.1907901.00502232zm4.2676715.89899528c.3815801.22098208.8786383.78348192.8786383.98939704 0 .03515624-.0803326.14062496-.1757276.23604904-.095395.09040176-.165686.1757812-.1556445.19084816.0100416.01004464.1154782-.03013392.2259356-.09040176.1958108-.09542408.2108732-.1004464.2460187-.01506696.0200832.0502232.0301248.3264508.0301248.61774536-.0050208.56249984-.1506237 1.22042376-.3916216 1.79799056-.0652702.15569192-.1355613.39676328-.1556445.53236592-.0451871.29129456-.1204989.22098208-.1305405-.12053568 0-.17075888-.0100416-.2008928-.0451871-.125558-.0702911.16573656-.0552287.34654008.0451871.54241056.0502079.1004464.1104574.28124992.1255198.39676328.0200832.12053568.0903742.33649544.1556445.48716504.0702911.14564728.1255197.27120528.1255197.28124992 0 .00502232-.1355613.04017856-.3062682.07031248-.5322037.10546872-.9740332.34654008-1.3656548.73828104l-.1857692.19084816.0301248-.1757812c.0451871-.21595976.1857693-.49720968.3012474-.6026784.120499-.10546872.4418296-.26618296.6978898-.34654008.2861851-.09040176.3464346-.16573656.1004158-.12053568-.5070997.08537944-1.0292619.38169632-1.1045738.61774536-.0251039.09040176-.0351455.09040176-.19079.01004464-.1104574-.05524552-.2409979-.0753348-.3916216-.06026784l-.2209147.0251116.24601877.03515624c.1556445.0251116.2912058.08537944.36149683.15569192.11045737.11049104.11045737.125558.0502079.44196416-.03514554.18080352-.095395.39174096-.14058213.4771204-.0903742.1757812-.1958108.64285696-.1707068.73828104.0100416.03515624.03514557.14062496.0502079.2260044l.03012478.16573656H7.523025c-.17572767 0-.4368087.0251116-.57739087.05524552-.2409979.0502232-.2661019.04520088-.38660084-.06529016-.4418295-.41183024-.5372245-1.02455328-.3564761-2.23995472.0753118-.502232.0150624-.51227664-.0903742-.01506696-.0853535.39174096-.1656861.53236592-.1757277.29129456V8.4310232l-.0552287.11551336c-.0451871.08537944-.0451871.16071424 0 .28124992.0351455.09040176.0602495.33147312.0602495.54241056 0 .20591512.0301247.48214272.070291.61272304.0502079.16573656.0602494.28124992.0251039.36662936-.025104.06529016-.0451871.19084816-.0451871.2762276v.15569192l-.3665177-.0251116c-.2058524-.01506696-.3916217-.04017856-.4217464-.05524552-.0351455-.0251116-.025104-.09542408.0401663-.22098208.0602494-.11551336.095395-.29129456.095395-.45703112 0-.26116064.0050208-.26618296.1807484-.34151776l.18074842-.0753348-.0200831-.39676328c-.01506234-.29631688-.0552287-.46205344-.16568604-.68303552-.13054054-.27120528-.13556133-.30636152-.08033264-.51729896.0351455-.125558.1004158-.27120528.1456029-.31640616.0853534-.08537944.1054366-.08537944.4368087.00502232.8284304.23102672 1.912921.251116 2.3798545.0502232.120499-.05524552.2108732-.10546872.1958108-.12053568-.0150623-.01506696-.10543654.01004464-.20585234.0502232-.29622663.12053568-.215894.05524552.1355613-.12053568.32133057-.15569192.78324325-.52232128.72801456-.5775668-.0150624-.01506696-.1707069.0753348-.3514553.2008928-.908763.63783464-2.415.68805784-3.5496986.11551336-.21589396-.10546872-.5874324-.3515624-.8334511-.54743288-.2510395-.2008928-.5171414-.39174096-.6024948-.43694184-.17070688-.09040176-.13556135-.12053568.2560603-.24107136.3414137-.10546872.4016632-.09542408.4920374.0753348l.08033263.1506696-.2912059.00502232-.2912058.00502232.5773909.14062496c1.5614657.38671864 2.4401039.36662936 3.17816002-.06529016.3313721-.19587048.7430769-.67299088.9489293-1.09486576.3163098-.65792392.3665177-.86383904.3665177-1.50167368 0-.63281232-.0702911-.86886136-.3715385-1.25055768l-.1506237-.19084816.1355613-.13058032c.0753119-.0753348.1506237-.13560264.1757277-.13560264.02510393 0 .1405821.06026784.2610811.13058032zm-7.8274116.79854888c.3765593.1757812.7732017.22098208 1.410842.1506696.3263514-.03515624.7832433-.1004464 1.0141996-.14564728.4819959-.09040176.9539501-.1004464 1.2250728-.0251116.1556445.04017856.1958108.08035712.2209148.20591512l.0301248.15569192.3062682-.03013392c.1707069-.01506696.5171414-.08537944.7782225-.1506696.3313722-.09040176.5121206-.11551336.6125364-.08537944.095395.03013392.2409979.02008928.3966424-.02008928l.2460187-.06529016-.0853534.1506696c-.2510395.4268972-1.0443243 1.19531216-1.5664864 1.51674064-.8485135.51729896-2.0233784.56249984-3.2183264.125558-.5422453-.19587048-.9188045-.43694184-1.2803014-.81361584-.3313721-.34654008-.4669334-.56752216-.5924532-.98939704-.1204989-.40680792-.1054366-.43694184.1255198-.23604904.1154782.09542408.2811642.21093744.3765593.25613832zm11.7436278-.29129456c1.0644075.2260044 2.0283992 1.01450864 2.3848753 1.96372712l.095395.251116-.261081.03515624c-.1456029.02008928-.3614969.0753348-.476975.13058032-.1606653.06529016-.2460187.08035712-.311289.04520088-.0502079-.03013392-.1556445-.0502232-.2309563-.0502232h-.1355614l.1154782.125558.120499.125558-.1757276.19084816c-.095395.1004464-.1757276.19587048-.1857692.20591512-.0050208.01506696-.0502079-.03013392-.095395-.1004464-.0451871-.06529016-.2058524-.24107136-.3564761-.38671864-.2209147-.21093744-.2610811-.28124992-.2058524-.31640616.0401663-.0251116.095395-.04520088.1305406-.04520088.1054366 0 .1255198-.1004464.0401663-.23102672-.1204989-.18080352-.0502079-.21093744.1154782-.05524552.1556445.1506696.2008316.16071424.4769751.08035712.1556445-.04017856.1907901-.07031248.1707069-.1506696-.0351455-.13058032.095395-.125558.1757277.00502232.0351456.05524552.120499.1004464.1907901.1004464s.2460187.03013392.3916216.07031248c.1456029.03515624.2610811.0502232.2610811.0251116 0-.05524552-.4167256-.24609368-.5472661-.24609368-.0602495 0-.2108732-.04520088-.33639295-.1004464-.22593552-.10546872-.3514553-.09542408-.3012474.0251116.0150624.04017856-.0451871.0753348-.1807484.09542408-.1506237.0251116-.2359771.01004464-.3665177-.07031248-.0903742-.05524552-.2008316-.1004464-.2460187-.1004464-.1004158 0-.1054366.11551336-.0050208.2008928.1104574.09040176.095395.12053568-.0853534.21093744l-.1656861.0753348-.095395-.19587048c-.12551973-.26618296-.62257794-.79352656-.9388877-.99441936-.1506237-.1004464-.2610811-.21093744-.27614345-.28627224-.0401663-.14564728.0552287-.6026784.14058215-.7031248.0702911-.08537944.597474-.0502232 1.1698441.07031248zm-4.3128586.34151776c.1707069.0502232.215894 1.08482112.0702911 1.4564728l-.0602495.1506696-.0652702-.2008928c-.1104573-.34151776-.4167255-.95926312-.597474-1.19531216-.095395-.125558-.1606653-.24107136-.1456029-.251116.025104-.03013392.6878482.00502232.7983056.04017856zm-.7681808.32142848c.3062682.39676328.717973 1.39620496.622578 1.49665136-.0200831.01506696-.1857692-.05524552-.3715384-.15569192-.19079-.1004464-.5522869-.28627224-.813368-.41183024l-.4719543-.22098208.2510395-.26618296c.1355614-.14062496.311289-.35658472.3916216-.4771204.0753119-.11551336.1556445-.21093744.1707069-.21093744.0200832 0 .120499.11049104.2209148.24609368zM7.1062992 4.69441712c.08535343.4268972.12551975 1.65234328.0552287 1.65234328-.0602495 0-1.32046778-1.22544608-1.32046778-1.2806916 0-.03013392.13556133-.125558.2962266-.22098208.16568608-.09040176.406684-.26618296.54224533-.38671864.13054054-.12053568.26610187-.21093744.2912058-.2008928.03012476.00502232.09037424.2008928.13556135.43694184zm.73303534-.07031248c.31630977.16071424.6426611.3515624.72299376.42187488l.1556445.125558-.14058214.26618296c-.18074843.3264508-.58743242.70814712-.93888772.87388368l-.26610186.125558-.03012473-.75837032c-.02008315-.42187488-.0451871-.84374976-.06527026-.93917384-.0200832-.09542408-.0451871-.2260044-.0602495-.29129456-.0100416-.06026784-.0050208-.11049104.0150623-.11049104.0251039 0 .2962266.13058032.6075156.28627224zm4.77979208.2008928c.37153847.14564728.93386695.5273436.97403327.65792392.0803326.26116064.1405821.80859352.1154781 1.0295756-.0853535.68805784-.7330354 1.56696384-1.2903431 1.73772272-.3363929.10546872-.5522869.06529016-.6978898-.13560264-.0602495-.0753348-.120499-.16071424-.1405821-.18582584-.0552287-.07031248-.0552287-.2762276-.0050208-.2762276.0251039 0 .0351455-.02008928.0150624-.0502232-.0150624-.0251116-.0602495-.03515624-.1004158-.02008928-.0451871.02008928-.0853534-.03013392-.120499-.16573656-.025104-.10546872-.0702911-.28124992-.1004158-.39174096-.0652703-.26116064-.0803327-.60770072-.0301248-.82366048.0552287-.26116064-.0502079-.1506696-.1707069.1757812-.0803327.2008928-.1054366.39174096-.1054366.71819176 0 .39676328.0351455.58258912.1958108 1.11495504.0552287.17075888-.0200832.29631688-.1707069.29631688-.1054366 0-.1154782-.01506696-.095395-.19084816.0401663-.31640616-.0200832-.49720968-.2108732-.64285696-.095395-.0753348-.1857693-.12053568-.2008316-.10546872-.0401663.04017856.1355613.39174096.2158939.42187488.0351455.01506696.0652702.04520088.0652702.07031248 0 .02008928-.0301248.03013392-.0702911.01506696-.0552287-.02008928-.0652703 0-.0451871.08035712.0150623.06026784.0552286.09542408.095395.08035712.0351455-.01506696.0753118-.01004464.0903742.01004464.0401663.06529016-.1606653.05524552-.215894-.00502232-.1154782-.14062496-.2560603-.84877208-.2560603-1.2806916 0-.50725432.0502079-.94921848.095395-.86886136.0200831.0251116.0351455-.03515624.0351455-.13560264 0-.19587048.2108732-.66294624.3765593-.84374976.0552287-.06026784.1958108-.1506696.3112889-.2008928.1154782-.0502232.2460187-.11551336.28618502-.1506696.1857692-.1506696.67278585-.125558 1.1547817.06529016zm-7.0240852.6529016c0 .19084816.02008316.47209808.0401663.62779.02008318.16071424.03012476.29129456.02008318.29129456-.1506237 0-1.02926195-.6780132-1.18490644-.91908456l-.08033264-.125558.4468503-.05524552c.2460187-.03013392.502079-.08035712.5623285-.10546872.1857692-.07031248.19079-.06529016.1958108.28627224zm.81336798.35658472c.3514553.3515624.62759875.65792392.6075156.6780132-.0502079.04520088-1.08449065.04520088-1.1547817-.00502232-.1054366-.07031248-.23095635-1.31584784-.13054055-1.31584784.02008314 0 .32635133.29129456.67780663.64285696zm4.016632-.09040176c-.1506237.43191952-.21087318 1.33593712-.12551975 1.8080352.03012472.1506696.0451871.28627224.0351455.29129456-.0451871.04520088-.27112264-.49720968-.32133054-.753348-.0552287-.31640616-.0050208-.7784596.1255198-1.08984344.0803327-.19084816.3765593-.67299088.3966424-.64787928.0100416.01004464-.0401663.18582584-.1104573.39174096zm-7.6818087.94921848c-.29120582.18080352-.28116424.45703112.03514553.98437472.1104574.1757812.29120583.6026784.406684.93917384.23095634.7031248.32635135.87388368.6024948 1.10993272.3012474.26116064.8033264.37165168.96399168.21595976.0401664-.04017856.120499-.06026784.2008316-.04520088.1104574.02008928.1355614.05524552.1355614.17075888 0 .4017856-.2460187.54743288-.9991372.59263376-.7330353.04017856-.7280145.11551336.0050208.33147312.2661019.08035712.3062682.08035712.5322038.01004464.2359771-.08035712.2560603-.08035712.4518711.01506696.3564761.1757812 1.0493451.31640616 1.5664865.32142848.4217464.00502232.5322038-.01506696.9489293-.16573656.5924532-.20591512.7380562-.19084816 1.0493451.10546872.3062682.3013392.3715385.4520088.3715385.8286828C9.0091788 12.77533 8.6426612 13.152004 8 13.152004c-.4368087-.00502232-.66274426-.11551336-1.290343-.64285696-.8083472-.68805784-1.17486487-.88895064-1.601632-.88895064-.2510395 0-.28116426.05524552-.09037424.14564728.4016632.18080352 1.0091788.76841496 1.39075883 1.34095944.4819958.73325872.8535343.96428544 1.6468191 1.0295756.6527027.0502232.7380561.08537944 1.0342827.376674.1305405.125558.2962266.26116064.3765592.3013392.0753118.04017856.1405821.08035712.1405821.09542408 0 .01004464-.1054366.07031248-.2359771.13058032-.1757277.08035712-.3715385.11551336-.7229938.13560264-.883659.04017856-1.5966112-.19084816-2.3296465-.76339264-.6978898-.54743288-.7581393-.56249984-.406684-.08035712.1255197.17075888.2309563.33147312.2309563.35658472 0 .07031248-.4368088-.16573656-.7782225-.41685256-.1656861-.125558-.4970582-.43694184-.7280146-.69810248-1.029262-1.14006664-1.1296778-1.22042376-1.6417984-1.35100408-.1154782-.03013392-.2460187-.1004464-.28618506-.16071424-.1004158-.14062496-.07531188-.16071424.0903742-.08537944.19079.08537944.286185-.01004464.1556445-.15569192-.09037426-.1004464-.83847197-.5524552-.9137838-.5524552-.1004158 0-.8635759-.48214272-1.0593867-.67299088-.23095635-.21595976-.4117048-.51227664-.4117048-.67299088 0-.14564728-.0602495-.17075888-.1355613-.06026784-.1255197.1757812-.1707068.05524552-.06024945-.16071424.08535345-.16573656.1004158-.26116064.07531187-.47209808-.025104-.20591512-.0100416-.28124992.0502079-.34151776.1757276-.18080352.3916216-.04017856.2811642.18582584s-.1154782.33649544-.0200832.55747752c.1104574.24609368.2962266.39174096.49203742.39174096.2409979.00502232.2962266-.18582584.1958108-.6529016-.0451871-.19084816-.1004158-.20591512-.1456029-.03515624-.0301247.125558-.1355613.16071424-.3012474.09542408-.1104574-.04017856-.1004158-.11551336.0451871-.33147312.14058215-.21093744.1606653-.376674.0502079-.52232128-.1004158-.13560264-.0903742-.30636152.03012477-.4771204.1054366-.1506696.3363929-.29631688.46693346-.29631688.1255198 0 .1405821.18080352.03012473.36160704-.18074845.29631688-.1004158.70814712.1606653.84877208.2610811.14062496.8083472.20591512.5924532.07031248-.03012476-.02008928-.0050208-.07031248.0602495-.125558.06527024-.05524552.095395-.09542408.07029103-.1004464-.02510396 0-.0150624-.03013392.0150624-.07031248.0401663-.04520088.1255197-.06026784.2811642-.04017856.1857692.02008928.2259355.01004464.2259355-.06026784 0-.04520088-.01506238-.08035712-.0351455-.08537944-.2510395-.02008928-.4167256-.01004464-.4167256.03013392 0 .03515624-.01506237.03515624-.0401663 0-.0200831-.03013392-.1204989-.125558-.2259355-.21093744-.1004158-.09040176-.19079007-.18080352-.2008316-.2008928-.0050208-.0251116-.0200832-.03515624-.03514558-.03013392-.0150624.00502232-.025104-.11049104-.0200832-.25613832.0050208-.20591512-.01506235-.26618296-.07029104-.26116064-.0753118.00502232-.2008316-.26618296-.2058524-.4520088-.0050208-.16573656.717973-.61272304.9991372-.61774536.120499-.00502232.120499 0-.0351455.09040176zm.63764033-.01004464c.21589398.1506696.2962266.2762276.58241165.86383904.1456029.31138384.27112268.5775668.27112268.58761144 0 .00502232-.03514553.0502232-.08033264.09542408-.07531186.07031248-.07531186.09040176-.01506238.15569192.0552287.05524552.11045738.06026784.2460187.02008928.22593556-.06529016.68282745-.06529016.8033264 0 .12049897.06529016.3012474.54743288.3012474.8035712 0 .16573656-.03514552.23604904-.21087317.41685256-.1958108.19587048-.23095635.21595976-.3564761.17075888-.11045738-.03515624-.16066528-.0251116-.23597713.04017856-.21589398.19587048-.7581393-.03013392-1.0493451-.4268972-.08033266-.11049104-.22091478-.43191952-.3062682-.71819176-.09037423-.28124992-.28618504-.73828104-.43178795-1.01953096-.3564761-.66796856-.3564761-.81863816 0-.9793524.2560603-.11551336.3263513-.11551336.4819958-.01004464zm11.1511746.78348192c.06024948.4017856 0 .94921848-.12551975 1.18526752-.0552287.1004464-.06024946.06026784-.0401663-.29129456.01506237-.25613832.0050208-.40680792-.03012474-.40680792-.02510394 0-.06527026.06026784-.08033263.13058032-.0451871.16573656-.4669334.62276768-.5824116.62276768-.0502079 0-.1004158.03013392-.1154781.07031248-.0401663.09542408-.3916216.14564728-.7280145.10546872-.2560603-.03515624-.2711226-.04520088-.1606652-.09040176.2610811-.1004464.4769751-.21093744.4920374-.251116.0100416-.02008928.0502079-.03515624.095395-.03515624.1907901 0 .9690125-.96930776 1.0694283-1.3309148.0803327-.29129456.1305406-.2260044.2058524.29129456zm-4.2224844.78348192c0 .0251116-.12049895.07031248-.26108107.1004464-.8183888.17075888-1.601632 1.0546872-1.6166944 1.82310216 0 .1757812.01506237.39174096.04016632.48716504l.04016632.17075888-.21589397-.12053568c-.2460187-.13560264-.28618504-.2260044-.29120583-.67299088-.01506237-.878906 1.01419958-1.82812448 1.99325363-1.8331468.17070685 0 .31128897.02008928.31128897.04520088zm.1506237.23102672c.06527028.0753348 0 .09542408-.31128897.09040176-.1104574 0-.1154782.0502232-.02008318.13560264.0451871.03515624.18576923.0502232.34141372.04017856l.26610187-.01506696.17572768.4268972c.1606653.39676328.17572766.46707576.17572766.9542408 0 .59765608-.0652702.7784596-.4117047 1.12499968-.286185.29129456-.57237.4017856-1.0141996.40680792-.3564761 0-.3765592-.00502232-.476975-.1506696-.0602494-.08035712-.2008316-.251116-.3163097-.376674-.1204989-.13058032-.2460187-.31640616-.2912058-.41685256-.2058523-.49218736.0200832-1.18526752.5573077-1.72767808.1556445-.15569192.2510395-.21595976.311289-.19084816.0451871.01506696.0652703.01506696.0451871-.00502232-.0401663-.04017856.0552287-.17075888.120499-.17075888.025104 0 .0451871.03013392.0451871.07031248 0 .09040176.1907901.14062496.2359772.06529016.0200832-.03515624.0401663-.10546872.0401663-.16071424 0-.15569192.4167256-.23604904.527183-.1004464zm2.2091476 2.1847092c.28116425.28124992.1506237 1.02455328-.31128897 1.7075888-.3163098.47209808-.92884617.88895064-1.49117465 1.00948632-.4719542.1004464-.7581393-.02008928-.7581393-.32142848 0-.14564728.0401664-.18582584.4418296-.44698648.717973-.47209808.8635759-.63783464 1.1346986-1.31584784.2309564-.5775668.3765593-.73325872.6677651-.73325872.1456029 0 .2460187.03013392.3163098.1004464zm-4.6693347.16573656c.12551976.0502232.12049897.0502232-.06024947.09040176-.1054366.0251116-.33137216.1004464-.502079.1757812-.29120584.12053568-.3564761.13058032-.89370064.11049104-.3966424-.01506696-.7079314-.05524552-.99411643-.13560264-.2309564-.06529016-.406684-.125558-.4016632-.13560264.0100415-.00502232.1707068.01004464.3564761.04520088.2962266.0502232.4117047.04017856.9539501-.06026784.3363929-.06529016.7029106-.13560264.8133679-.15569192.2209148-.04017856.5372245-.01004464.7280146.06529016z"/>
</svg>
